<svg width="20" height="20" viewBox="0 0 20 20" fill="none" xmlns="http://www.w3.org/2000/svg">
<path d="M8.55295 17.105C10.4506 17.1046 12.2936 16.4694 13.7884 15.3004L18.4883 20L20 18.4883L15.3002 13.7888C16.4698 12.2938 17.1054 10.4505 17.1059 8.55249C17.1059 3.83686 13.2688 0 8.55295 0C3.83707 0 0 3.83686 0 8.55249C0 13.2681 3.83707 17.105 8.55295 17.105ZM8.55295 2.13812C12.0907 2.13812 14.9677 5.01497 14.9677 8.55249C14.9677 12.09 12.0907 14.9669 8.55295 14.9669C5.01523 14.9669 2.13824 12.09 2.13824 8.55249C2.13824 5.01497 5.01523 2.13812 8.55295 2.13812Z" fill="#656565"/>
<path d="M10.0626 7.04086C10.4678 7.44711 10.6912 7.98378 10.6912 8.55252H12.8295C12.8304 7.99065 12.72 7.43416 12.5046 6.91523C12.2891 6.3963 11.9729 5.92522 11.5743 5.52921C9.95569 3.91279 7.14925 3.91279 5.53168 5.52921L7.04127 7.043C7.8538 6.23265 9.25435 6.23479 10.0626 7.04086Z" fill="#888888"/>
</svg>
